REM MD5 5e2d898467b596ba7de4d1ffe9729238
FILE "Euro Demo Germany 10-01 (Germany).bin" BINARY
  TRACK 01 MODE2/2352
    INDEX 01 00:00:00
  TRACK 02 AUDIO
    INDEX 00 32:51:47
    INDEX 01 32:53:47
  TRACK 03 AUDIO
    INDEX 00 36:18:15
    INDEX 01 36:20:15
REM LEADOUT 39:21:47
